<?xml version="1.0"?>
<svg width="640" height="480" xmlns="http://www.w3.org/2000/svg">
 <!-- Created with SVG-edit - http://svg-edit.googlecode.com/ -->
 <g>
  <title>Layer 1</title>
  <path id="svg_9" d="m36,102l37,33l68,-26l-1,-49l24,-29l17,0l-31,30l0,46l38,37l39,-39l0,-35l-39,-38l19,0l32,32l0,41l-43,43l48,0l38,-38l0,-79l16,0l0,82l-49,48l-72,0l-37,-38l-67,27l-48,-42l11,-6z" stroke-width="2" stroke="#000000" fill="#FF0000"/>
  <g id="svg_18">
   <rect id="svg_16" height="437" width="602" y="22" x="20" stroke-linecap="null" stroke-linejoin="null" stroke-dasharray="null" stroke-width="2" stroke="#000000" fill="none"/>
   <rect id="svg_17" height="416" width="576" y="32" x="35" stroke-linecap="null" stroke-linejoin="null" stroke-dasharray="null" stroke-width="2" stroke="#000000" fill="none"/>
  </g>
  <path id="svg_19" d="m308,263l-55,-58l-68,12l-52,50l-61,19l54,58l-38,30l58,34l-27,42l19,-2l23,-40l-60,-35l41,-31l-53,-53l57,-19l44,-45l60,-10l48,52l10,-4z" stroke-linecap="null" stroke-linejoin="null" stroke-dasharray="null" stroke-width="2" stroke="#000000" fill="#FF0000"/>
  <path id="svg_20" d="m135,266l58,40l53,-88l58,-90l101,30l10,-14l-117,-33l-54,92l-53,87l-46,-33l-10,9z" stroke-linecap="null" stroke-linejoin="null" stroke-dasharray="null" stroke-width="2" stroke="#000000" fill="#FF0000"/>
  <path id="svg_21" d="m71,148l-34,42l0,28l99,48l8,-10l-95,-45l0,-20l39,-46l-17,3z" stroke-linecap="null" stroke-linejoin="null" stroke-dasharray="null" stroke-width="2" stroke="#000000" fill="#FF0000"/>
  <path d="m160,148l12,81l-77,5l-20,-10l-1,-60l10,-14l7,69l71,0l-76,-43l-1,-14l73,46l-7,-74l9,14z" id="svg_22" stroke-linecap="null" stroke-linejoin="null" stroke-dasharray="null" stroke-width="2" stroke="#000000" fill="#FF0000"/>
  <path id="svg_23" stroke-linecap="null" stroke-linejoin="null" stroke-dasharray="null" stroke-width="5" stroke="#000000" fill="#FF0000"/>
  <path id="svg_24" d="m74,288l-36,53l-1,26l52,7l12,-10l-55,-7l35,-60l-7,-9z" stroke-linecap="null" stroke-linejoin="null" stroke-dasharray="null" stroke-width="2" stroke="#000000" fill="#FF0000"/>
  <path id="svg_25" d="m73,285l-36,-4l-1,11l34,1" stroke-linecap="null" stroke-linejoin="null" stroke-dasharray="null" stroke-width="2" stroke="#000000" fill="#FF0000"/>
  <path id="svg_26" d="m89,373l-52,56l0,18l60,-68l-8,-6z" stroke-linecap="null" stroke-linejoin="null" stroke-dasharray="null" stroke-width="2" stroke="#000000" fill="#FF0000"/>
  <path id="svg_27" d="m70,132l70,-71l-56,-30l-21,1l59,30l-63,62l11,8z" stroke-linecap="null" stroke-linejoin="null" stroke-dasharray="null" stroke-width="2" stroke="#000000" fill="#FF0000"/>
  <path id="svg_30" d="m540,34l30,40l-15,8l-66,-51l-24,0l59,44l-53,39l10,7l53,-39l18,78l60,39l0,-22l-48,-24l-20,-57l29,-3l27,28l13,-8l-29,-26l25,-54l-18,-1l-11,42l-30,-43l-10,3z" stroke-linecap="null" stroke-linejoin="null" stroke-dasharray="null" stroke-width="2" stroke="#000000" fill="#FF0000"/>
  <path id="svg_31" d="m480,108l-58,32l-10,11l77,-36l-4,90l75,-51l16,8l-65,38l45,22l4,45l34,20l29,-31l-1,27l-44,28l-36,-48l3,-34l-35,-19l0,64l-47,50l42,-3l50,38l-79,36l74,16l24,31l-22,1l-10,-26l-88,-20l-33,48l-27,-1l54,-56l88,-31l-31,-28l-49,5l-64,32l40,25l-12,28l-9,14l6,-41l-49,-29l101,-54l-89,-38l12,-12l78,37l29,-27l0,-58l-25,14l4,-96l-47,80l-20,61l-11,-8l19,-61l45,-78" stroke-linecap="null" stroke-linejoin="null" stroke-dasharray="null" stroke-width="2" stroke="#000000" fill="#ff0000"/>
  <path id="svg_32" d="m463,124l-7,-94l20,2l2,84l-15,8z" stroke-linecap="null" stroke-linejoin="null" stroke-dasharray="null" stroke-width="2" stroke="#000000" fill="#FF0000"/>
  <path id="svg_33" d="m461,122l92,40l3,-10l-86,-41l-9,11z" stroke-linecap="null" stroke-linejoin="null" stroke-dasharray="null" stroke-width="2" stroke="#000000" fill="#FF0000"/>
  <path id="svg_34" d="m351,140l34,129l18,-6l-43,-128l-9,5z" stroke-linecap="null" stroke-linejoin="null" stroke-dasharray="null" stroke-width="2" stroke="#000000" fill="#FF0000"/>
  <path id="svg_35" d="m551,356l62,-26l-1,18l-58,17l-3,50l-19,-5l11,-54l-2,-93l12,1l-2,92z" stroke-linecap="null" stroke-linejoin="null" stroke-dasharray="null" stroke-width="2" stroke="#000000" fill="#FF0000"/>
  <path id="svg_36" d="m208,280l84,-21l-48,62l71,31l0,43l39,14l38,39l30,2l-61,-50l17,-36l28,-83l-19,-15l-16,92l-17,35l-29,-5l9,-59l-75,-11l54,-71l-102,19l-3,14z" stroke-linecap="null" stroke-linejoin="null" stroke-dasharray="null" stroke-width="2" stroke="#000000" fill="#FF0000"/>
  <path id="svg_37" d="m156,406l30,-108l72,20l18,80l-18,53l29,-1l-5,-42l47,-16l-8,-13l-36,9l-17,-71l-73,-25l-28,119l-11,-5z" stroke-linecap="null" stroke-linejoin="null" stroke-dasharray="null" stroke-width="2" stroke="#000000" fill="#FF0000"/>
  <path id="svg_38" d="m152,417l116,-58l-4,-16l-115,67l3,7z" stroke-linecap="null" stroke-linejoin="null" stroke-dasharray="null" stroke-width="2" stroke="#000000" fill="#FF0000"/>
  <path id="svg_39" d="m293,260l103,22l1,-13l-112,-33l8,24z" stroke-linecap="null" stroke-linejoin="null" stroke-dasharray="null" stroke-width="2" stroke="#000000" fill="#FF0000"/>
  <path id="svg_40" d="m310,253l41,-120l111,-77l1,19l-98,63l-45,123l-10,-8z" stroke-linecap="null" stroke-linejoin="null" stroke-dasharray="null" stroke-width="2" stroke="#000000" fill="#FF0000"/>
  <path id="svg_41" d="m395,102l-107,-65l13,-10l106,73l-12,2z" stroke-linecap="null" stroke-linejoin="null" stroke-dasharray="null" stroke-width="2" stroke="#000000" fill="#FF0000"/>
  <path id="svg_42" d="m327,327l61,-56l1,20l-65,50l3,-14z" stroke-linecap="null" stroke-linejoin="null" stroke-dasharray="null" stroke-width="2" stroke="#000000" fill="#FF0000"/>
 </g>
</svg>